<svg xmlns="http://www.w3.org/2000/svg" viewBox="0 0 10 12.5" x="0px" y="0px"><path d="M10 0v7.698a.513.513 0 0 1-1.018.092l-.008-.092-.001-5.826a.05.05 0 0 0-.085-.036L.876 9.85a.513.513 0 0 1-.655.06l-.07-.06a.513.513 0 0 1-.06-.655l.06-.071 8.01-8.012a.05.05 0 0 0-.035-.086H2.302a.513.513 0 0 1-.505-.42L1.789.512c0-.252.181-.461.42-.505L2.303 0H10z"/><text x="0" y="25" fill="#000000" font-size="5px" font-weight="bold" font-family="'Helvetica Neue', Helvetica, Arial-Unicode, Arial, Sans-serif">Created by Derrick Snider</text><text x="0" y="30" fill="#000000" font-size="5px" font-weight="bold" font-family="'Helvetica Neue', Helvetica, Arial-Unicode, Arial, Sans-serif">from the Noun Project</text></svg>